<mxfile host="app.diagrams.net" modified="2024-03-20T13:14:11.002Z" agent="Mozilla/5.0 (Windows NT 10.0; Win64; x64) AppleWebKit/537.36 (KHTML, like Gecko) Chrome/122.0.0.0 Safari/537.36" etag="by5vhNieiLr6lWTBO9cl" version="23.0.2" type="device">
  <diagram id="6a731a19-8d31-9384-78a2-239565b7b9f0" name="Page-1">
    <mxGraphModel dx="2390" dy="1243" grid="1" gridSize="10" guides="1" tooltips="1" connect="1" arrows="1" fold="1" page="1" pageScale="1" pageWidth="1169" pageHeight="827" background="none" math="0" shadow="0">
      <root>
        <mxCell id="0" />
        <mxCell id="1" parent="0" />
        <mxCell id="1353" value="Keywords" style="ellipse;whiteSpace=wrap;html=1;shadow=0;fontFamily=Helvetica;fontSize=20;fontColor=#FFFFFF;align=center;strokeWidth=3;fillColor=#1699D3;strokeColor=none;" parent="1" vertex="1">
          <mxGeometry x="1630" y="630" width="120" height="120" as="geometry" />
        </mxCell>
        <mxCell id="1354" value="Enterprise Solution Patterns" style="ellipse;whiteSpace=wrap;html=1;shadow=0;fontFamily=Helvetica;fontSize=20;fontColor=#FFFFFF;align=center;strokeWidth=3;fillColor=#736ca8;strokeColor=none;" parent="1" vertex="1">
          <mxGeometry x="1350" y="240" width="120" height="120" as="geometry" />
        </mxCell>
        <mxCell id="1356" value="Classes" style="ellipse;whiteSpace=wrap;html=1;shadow=0;fontFamily=Helvetica;fontSize=20;fontColor=#FFFFFF;align=center;strokeWidth=3;fillColor=#E85642;strokeColor=none;" parent="1" vertex="1">
          <mxGeometry x="1320" y="1220" width="120" height="120" as="geometry" />
        </mxCell>
        <mxCell id="1362" style="endArrow=none;strokeWidth=6;strokeColor=#1699D3;html=1;" parent="1" source="1515" target="1353" edge="1">
          <mxGeometry relative="1" as="geometry" />
        </mxCell>
        <mxCell id="1363" style="endArrow=none;strokeWidth=6;strokeColor=#736CA8;html=1;" parent="1" source="1515" target="1516" edge="1">
          <mxGeometry relative="1" as="geometry" />
        </mxCell>
        <mxCell id="1364" style="endArrow=none;strokeWidth=6;strokeColor=#736ca8;html=1;" parent="1" source="1515" target="1354" edge="1">
          <mxGeometry relative="1" as="geometry" />
        </mxCell>
        <mxCell id="1366" value="" style="edgeStyle=none;endArrow=none;strokeWidth=6;strokeColor=#E85642;html=1;" parent="1" source="1515" target="1356" edge="1">
          <mxGeometry x="181" y="226.5" width="100" height="100" as="geometry">
            <mxPoint x="181" y="326.5" as="sourcePoint" />
            <mxPoint x="281" y="226.5" as="targetPoint" />
          </mxGeometry>
        </mxCell>
        <mxCell id="1445" value="this" style="rounded=1;fillColor=#64BBE2;strokeColor=none;strokeWidth=3;shadow=0;html=1;fontColor=#FFFFFF;fontSize=17;" parent="1" vertex="1">
          <mxGeometry x="1970" y="757.25" width="144" height="48.5" as="geometry" />
        </mxCell>
        <mxCell id="1456" value="" style="edgeStyle=none;endArrow=none;strokeWidth=3;strokeColor=#64BBE2;html=1;" parent="1" source="1353" target="1445" edge="1">
          <mxGeometry x="-24" y="196.5" width="100" height="100" as="geometry">
            <mxPoint x="-24" y="296.5" as="sourcePoint" />
            <mxPoint x="76" y="196.5" as="targetPoint" />
          </mxGeometry>
        </mxCell>
        <mxCell id="1462" value="Implementing Singletons" style="rounded=1;fillColor=#a29dc5;strokeColor=none;strokeWidth=3;shadow=0;html=1;fontColor=#FFFFFF;fontSize=17;" parent="1" vertex="1">
          <mxGeometry x="1580" y="150" width="220" height="48.5" as="geometry" />
        </mxCell>
        <mxCell id="1490" value="static classes" style="rounded=1;fillColor=#f08e81;strokeColor=none;strokeWidth=3;shadow=0;html=1;fontColor=#FFFFFF;fontSize=17;" parent="1" vertex="1">
          <mxGeometry x="1480" y="1080" width="150" height="50" as="geometry" />
        </mxCell>
        <mxCell id="1491" value="static members" style="rounded=1;fillColor=#f08e81;strokeColor=none;strokeWidth=3;shadow=0;html=1;fontColor=#FFFFFF;fontSize=17;" parent="1" vertex="1">
          <mxGeometry x="1320" y="1000" width="160" height="50" as="geometry" />
        </mxCell>
        <mxCell id="1503" value="" style="edgeStyle=none;endArrow=none;strokeWidth=3;strokeColor=#F08E81;html=1;" parent="1" source="1356" target="1490" edge="1">
          <mxGeometry x="188.5" y="51.5" width="100" height="100" as="geometry">
            <mxPoint x="188.5" y="151.5" as="sourcePoint" />
            <mxPoint x="288.5" y="51.5" as="targetPoint" />
          </mxGeometry>
        </mxCell>
        <mxCell id="1515" value="C#" style="ellipse;whiteSpace=wrap;html=1;shadow=0;fontFamily=Helvetica;fontSize=30;fontColor=#2F5B7C;align=center;strokeColor=#2F5B7C;strokeWidth=6;fillColor=#FFFFFF;fontStyle=1;gradientColor=none;" parent="1" vertex="1">
          <mxGeometry x="961" y="676.5" width="270" height="270" as="geometry" />
        </mxCell>
        <mxCell id="1516" value="Extension Menthods" style="ellipse;whiteSpace=wrap;html=1;shadow=0;fontFamily=Helvetica;fontSize=20;fontColor=#FFFFFF;align=center;strokeWidth=3;fillColor=#736ca8;strokeColor=none;" parent="1" vertex="1">
          <mxGeometry x="480" y="750" width="120" height="120" as="geometry" />
        </mxCell>
        <mxCell id="dE3JFqHrWZk-7uI6yQrM-1547" value="Modifier" style="rounded=1;fillColor=#64BBE2;strokeColor=none;strokeWidth=3;shadow=0;html=1;fontColor=#FFFFFF;fontSize=17;" parent="1" vertex="1">
          <mxGeometry x="1730" y="840" width="160" height="50" as="geometry" />
        </mxCell>
        <mxCell id="dE3JFqHrWZk-7uI6yQrM-1549" value="" style="edgeStyle=none;endArrow=none;strokeWidth=3;strokeColor=#64BBE2;html=1;entryX=0.5;entryY=0;entryDx=0;entryDy=0;" parent="1" source="1353" target="dE3JFqHrWZk-7uI6yQrM-1547" edge="1">
          <mxGeometry x="-14" y="206.5" width="100" height="100" as="geometry">
            <mxPoint x="1948" y="891" as="sourcePoint" />
            <mxPoint x="1886" y="907" as="targetPoint" />
          </mxGeometry>
        </mxCell>
        <mxCell id="dE3JFqHrWZk-7uI6yQrM-1550" value="static" style="rounded=1;fillColor=#64BBE2;strokeColor=none;strokeWidth=3;shadow=0;html=1;fontColor=#FFFFFF;fontSize=17;" parent="1" vertex="1">
          <mxGeometry x="1540" y="827" width="150" height="50" as="geometry" />
        </mxCell>
        <mxCell id="dE3JFqHrWZk-7uI6yQrM-1551" value="" style="edgeStyle=none;endArrow=none;strokeWidth=3;strokeColor=#64BBE2;html=1;entryX=0;entryY=0.5;entryDx=0;entryDy=0;" parent="1" source="dE3JFqHrWZk-7uI6yQrM-1550" target="dE3JFqHrWZk-7uI6yQrM-1547" edge="1">
          <mxGeometry x="-4" y="216.5" width="100" height="100" as="geometry">
            <mxPoint x="2054" y="912" as="sourcePoint" />
            <mxPoint x="2120" y="960" as="targetPoint" />
          </mxGeometry>
        </mxCell>
        <mxCell id="dE3JFqHrWZk-7uI6yQrM-1552" style="endArrow=none;strokeWidth=3;strokeColor=#736ca8;html=1;entryX=0.986;entryY=0.211;entryDx=0;entryDy=0;entryPerimeter=0;" parent="1" target="1354" edge="1">
          <mxGeometry relative="1" as="geometry">
            <mxPoint x="1670" y="200" as="sourcePoint" />
            <mxPoint x="1730" y="1210" as="targetPoint" />
          </mxGeometry>
        </mxCell>
        <mxCell id="dE3JFqHrWZk-7uI6yQrM-1553" value="" style="edgeStyle=none;endArrow=none;strokeWidth=3;strokeColor=#F08E81;html=1;entryX=0.5;entryY=1;entryDx=0;entryDy=0;exitX=0.5;exitY=0;exitDx=0;exitDy=0;" parent="1" source="1356" target="1491" edge="1">
          <mxGeometry x="198.5" y="61.5" width="100" height="100" as="geometry">
            <mxPoint x="646" y="1184" as="sourcePoint" />
            <mxPoint x="687" y="1057" as="targetPoint" />
          </mxGeometry>
        </mxCell>
        <mxCell id="6J3C2WITVliitDzKt7-K-1516" style="endArrow=none;strokeWidth=6;strokeColor=#82b366;html=1;fillColor=#d5e8d4;" parent="1" source="1515" target="6J3C2WITVliitDzKt7-K-1517" edge="1">
          <mxGeometry relative="1" as="geometry">
            <mxPoint x="1137.5" y="474.5" as="sourcePoint" />
          </mxGeometry>
        </mxCell>
        <mxCell id="6J3C2WITVliitDzKt7-K-1517" value="Expressions" style="ellipse;whiteSpace=wrap;html=1;shadow=0;fontFamily=Helvetica;fontSize=20;align=center;strokeWidth=3;fillColor=#d5e8d4;strokeColor=#82b366;" parent="1" vertex="1">
          <mxGeometry x="488.5" y="390" width="120" height="120" as="geometry" />
        </mxCell>
        <mxCell id="6J3C2WITVliitDzKt7-K-1518" value="Lambda Expressions" style="rounded=1;fillColor=#d5e8d4;strokeColor=#82b366;strokeWidth=3;shadow=0;html=1;fontSize=17;" parent="1" vertex="1">
          <mxGeometry x="580" y="230" width="210" height="56" as="geometry" />
        </mxCell>
        <mxCell id="6J3C2WITVliitDzKt7-K-1519" value="" style="edgeStyle=none;endArrow=none;strokeWidth=3;strokeColor=#82b366;html=1;exitX=1;exitY=0;exitDx=0;exitDy=0;fillColor=#d5e8d4;" parent="1" source="6J3C2WITVliitDzKt7-K-1517" target="6J3C2WITVliitDzKt7-K-1518" edge="1">
          <mxGeometry x="188.5" y="51.5" width="100" height="100" as="geometry">
            <mxPoint x="592.5" y="413.5" as="sourcePoint" />
            <mxPoint x="245" y="-709" as="targetPoint" />
          </mxGeometry>
        </mxCell>
        <mxCell id="NUyUxgdjDDwg1xN5IyeY-1516" value="sealed" style="rounded=1;fillColor=#64BBE2;strokeColor=none;strokeWidth=3;shadow=0;html=1;fontColor=#FFFFFF;fontSize=17;" vertex="1" parent="1">
          <mxGeometry x="1540" y="909.2" width="150" height="50" as="geometry" />
        </mxCell>
        <mxCell id="NUyUxgdjDDwg1xN5IyeY-1517" value="" style="edgeStyle=none;endArrow=none;strokeWidth=3;strokeColor=#64BBE2;html=1;entryX=0.005;entryY=0.952;entryDx=0;entryDy=0;entryPerimeter=0;exitX=0.981;exitY=0.032;exitDx=0;exitDy=0;exitPerimeter=0;" edge="1" parent="1" source="NUyUxgdjDDwg1xN5IyeY-1516" target="dE3JFqHrWZk-7uI6yQrM-1547">
          <mxGeometry x="-4" y="216.5" width="100" height="100" as="geometry">
            <mxPoint x="2054" y="994.2" as="sourcePoint" />
            <mxPoint x="1724" y="890" as="targetPoint" />
          </mxGeometry>
        </mxCell>
      </root>
    </mxGraphModel>
  </diagram>
</mxfile>
